<svg width="25" height="25" viewBox="0 0 25 25" fill="none" xmlns="http://www.w3.org/2000/svg">
<g clip-path="url(#clip0_1_1446)">
<path d="M18.8438 8.39062C18.8438 6.79932 18.2116 5.2732 17.0863 4.14798C15.9611 3.02277 14.4351 2.39062 12.8438 2.39062C11.2524 2.39062 9.72633 3.02277 8.60111 4.14798C7.47589 5.2732 6.84375 6.79932 6.84375 8.39062C6.84375 15.3906 3.84375 17.3906 3.84375 17.3906H21.8438C21.8438 17.3906 18.8438 15.3906 18.8438 8.39062Z" stroke="white" stroke-linecap="round" stroke-linejoin="round"/>
<path d="M14.5738 21.3906C14.398 21.6937 14.1457 21.9453 13.842 22.1201C13.5384 22.295 13.1942 22.3871 12.8438 22.3871C12.4934 22.3871 12.1492 22.295 11.8456 22.1201C11.542 21.9453 11.2896 21.6937 11.1138 21.3906" stroke="white" stroke-linecap="round" stroke-linejoin="round"/>
</g>
<defs>
<clipPath id="clip0_1_1446">
<rect width="24" height="24" fill="white" transform="translate(0.84375 0.390625)"/>
</clipPath>
</defs>
</svg>
