<svg width="25" height="25" viewBox="0 0 25 25" fill="none" xmlns="http://www.w3.org/2000/svg">
<g clip-path="url(#clip0_1_1442)">
<path fill-rule="evenodd" clip-rule="evenodd" d="M20.8692 8.01423L20.2467 6.93414C19.7202 6.02022 18.5532 5.70494 17.638 6.22934C17.2024 6.48596 16.6826 6.55877 16.1932 6.43171C15.7038 6.30464 15.2851 5.98814 15.0293 5.55199C14.8648 5.27477 14.7764 4.95901 14.773 4.63666C14.7879 4.11984 14.5929 3.61902 14.2325 3.24829C13.8721 2.87756 13.377 2.66848 12.86 2.6687H11.606C11.0995 2.66869 10.6138 2.87053 10.2565 3.22956C9.89919 3.5886 9.69967 4.07521 9.70211 4.58174C9.6871 5.62754 8.83498 6.46743 7.78907 6.46732C7.46671 6.46397 7.15096 6.37556 6.87373 6.21103C5.95856 5.68663 4.79161 6.00191 4.26504 6.91584L3.59685 8.01423C3.07091 8.92701 3.3819 10.0932 4.2925 10.623C4.8844 10.9647 5.24903 11.5963 5.24903 12.2797C5.24903 12.9632 4.8844 13.5947 4.2925 13.9365C3.38306 14.4626 3.07173 15.626 3.59685 16.536L4.22843 17.6253C4.47515 18.0705 4.8891 18.399 5.37869 18.5381C5.86828 18.6773 6.39314 18.6156 6.83712 18.3667C7.27358 18.112 7.79369 18.0422 8.28184 18.1729C8.76999 18.3035 9.18574 18.6237 9.43666 19.0623C9.6012 19.3396 9.68961 19.6553 9.69296 19.9777C9.69296 21.0342 10.5495 21.8907 11.606 21.8907H12.86C13.913 21.8907 14.768 21.0398 14.773 19.9868C14.7706 19.4787 14.9714 18.9907 15.3307 18.6314C15.69 18.2721 16.178 18.0713 16.6861 18.0738C17.0077 18.0824 17.3221 18.1704 17.6014 18.3301C18.5142 18.856 19.6804 18.545 20.2101 17.6344L20.8692 16.536C21.1243 16.0982 21.1943 15.5767 21.0637 15.087C20.9331 14.5974 20.6127 14.18 20.1735 13.9273C19.7343 13.6746 19.4139 13.2572 19.2833 12.7676C19.1527 12.278 19.2228 11.7565 19.4779 11.3186C19.6437 11.029 19.8839 10.7889 20.1735 10.623C21.0786 10.0935 21.3889 8.93411 20.8692 8.02339V8.01423Z" stroke="white" stroke-linecap="round" stroke-linejoin="round"/>
<path d="M12.2376 14.9158C13.6935 14.9158 14.8738 13.7356 14.8738 12.2797C14.8738 10.8237 13.6935 9.64349 12.2376 9.64349C10.7817 9.64349 9.60144 10.8237 9.60144 12.2797C9.60144 13.7356 10.7817 14.9158 12.2376 14.9158Z" stroke="white" stroke-linecap="round" stroke-linejoin="round"/>
</g>
<defs>
<clipPath id="clip0_1_1442">
<rect width="24" height="24" fill="white" transform="translate(0.0625 0.390625)"/>
</clipPath>
</defs>
</svg>
